<?xml version="1.0" encoding="UTF-8" ?>
<!DOCTYPE svg PUBLIC "-//W3C//DTD SVG 1.1//EN" "http://www.w3.org/Graphics/SVG/1.1/DTD/svg11.dtd">
<svg width="1024pt" height="1024pt" viewBox="0 0 1024 1024" version="1.1" xmlns="http://www.w3.org/2000/svg">
<g id="#fdfdfdff">
</g>
<g id="#1e3872ff">
<path fill="#1e3872" opacity="1.00" d=" M 377.26 268.31 C 388.66 259.01 407.27 260.91 416.32 272.60 C 424.43 283.30 431.65 294.65 439.20 305.76 C 449.81 321.78 460.88 337.47 471.52 353.47 C 478.10 363.32 484.68 373.16 491.46 382.88 C 513.62 349.64 536.09 316.60 558.41 283.48 C 562.90 276.83 567.32 269.49 574.61 265.59 C 587.22 258.85 605.07 263.03 612.20 275.76 C 614.05 279.00 615.28 282.61 615.81 286.30 C 614.46 306.83 615.52 327.43 615.30 347.99 C 615.17 368.66 615.03 389.33 615.35 409.99 C 615.33 453.33 615.34 496.68 615.34 540.02 C 615.49 548.29 614.89 556.57 615.67 564.82 C 613.76 576.64 602.82 585.64 591.14 586.77 C 580.21 587.99 568.94 581.80 563.99 572.01 C 561.48 567.43 560.57 562.16 560.75 556.98 C 560.65 497.63 560.90 438.27 560.63 378.92 C 545.43 401.59 529.96 424.09 514.83 446.81 C 509.81 454.26 500.98 459.03 491.97 458.91 C 482.66 459.17 473.35 454.43 468.09 446.75 C 452.66 424.46 437.82 401.75 422.09 379.67 C 421.33 397.33 421.99 415.03 421.68 432.70 C 421.27 443.12 414.26 452.99 404.49 456.68 C 397.46 456.45 390.43 456.41 383.41 456.62 C 373.09 452.77 366.26 441.89 366.35 431.01 C 366.37 384.00 366.32 336.98 366.35 289.97 C 366.26 281.54 370.99 273.66 377.26 268.31 Z" />
<path fill="#1e3872" opacity="1.00" d=" M 246.21 405.10 C 254.07 394.27 261.86 383.38 270.05 372.80 C 303.60 418.57 337.29 464.24 370.88 509.99 C 379.63 523.17 399.55 526.44 412.42 517.52 C 429.43 505.33 446.10 492.66 463.39 480.86 C 452.21 495.91 441.66 511.42 430.27 526.31 C 427.09 530.43 424.50 535.09 420.54 538.55 C 415.44 542.83 408.06 544.52 401.72 542.24 C 395.96 540.20 391.58 535.76 386.66 532.32 C 340.83 498.49 294.91 464.76 249.00 431.04 C 241.49 424.90 240.29 412.72 246.21 405.10 Z" />
<path fill="#1e3872" opacity="1.00" d=" M 475.08 511.02 C 476.15 512.84 477.50 514.69 477.46 516.93 C 477.93 526.28 477.10 535.63 477.19 544.99 C 477.72 554.58 476.69 564.21 477.70 573.78 C 475.52 581.34 468.15 587.52 460.14 587.54 C 399.07 587.70 338.00 587.59 276.93 587.64 C 269.58 587.79 262.52 583.20 259.30 576.67 C 257.27 572.44 256.78 567.68 256.81 563.06 C 256.89 549.64 256.71 536.23 256.91 522.82 C 264.88 524.94 272.52 528.09 280.32 530.72 C 323.30 545.26 366.09 560.34 409.05 574.94 C 415.95 577.06 422.64 580.57 430.03 580.45 C 439.63 580.50 449.21 575.63 454.49 567.54 C 457.99 562.37 459.60 556.27 461.66 550.46 C 466.19 537.33 470.44 524.10 475.08 511.02 Z" />
</g>
<g id="#78daabff">
<path fill="#78daab" opacity="1.00" d=" M 636.83 275.90 C 642.80 268.61 651.61 263.50 661.06 262.61 C 678.25 260.62 696.43 272.59 699.78 289.90 C 704.09 306.67 694.26 325.73 677.93 331.62 C 673.25 333.66 668.05 333.16 663.19 334.27 C 657.97 335.74 658.35 345.21 664.06 345.51 C 687.10 347.11 708.75 328.50 712.19 305.94 C 713.88 298.39 711.99 290.82 711.20 283.31 C 721.58 283.85 731.33 288.26 739.44 294.60 C 750.01 303.73 755.53 317.92 754.45 331.80 C 764.79 335.23 773.78 342.66 778.46 352.58 C 783.43 361.60 783.63 372.34 781.84 382.26 C 774.84 378.88 768.48 374.18 760.94 371.97 C 753.47 369.47 745.41 369.55 737.68 370.58 C 729.54 371.59 721.85 374.78 713.69 375.70 C 711.15 371.83 708.07 368.28 704.37 365.49 C 701.66 363.23 696.94 364.30 695.67 367.65 C 695.24 369.43 695.48 371.29 695.49 373.10 C 701.62 377.53 706.50 384.18 706.59 392.01 C 707.35 397.29 704.73 402.04 703.49 406.98 C 703.24 411.83 709.69 414.54 713.01 410.98 C 717.82 404.43 719.25 395.74 718.02 387.79 C 725.87 385.42 733.69 382.42 741.98 382.19 C 750.94 381.68 760.37 383.04 767.94 388.15 C 778.73 395.12 787.30 406.81 787.72 419.99 C 787.84 426.25 788.10 432.78 785.68 438.69 C 781.60 448.71 774.20 457.61 764.39 462.38 C 754.74 467.22 743.35 467.67 732.96 465.29 C 727.33 463.99 721.58 463.34 715.81 463.24 C 715.80 457.03 715.39 450.43 712.13 444.97 C 709.55 442.45 704.13 442.86 702.60 446.42 C 701.78 448.90 702.54 451.54 702.97 454.04 C 704.01 458.69 704.43 463.84 702.17 468.21 C 700.40 471.93 697.20 474.66 695.01 478.09 C 694.11 480.50 695.57 483.18 697.28 484.86 C 699.81 486.45 703.71 485.96 705.60 483.54 C 708.30 480.49 710.34 476.93 712.76 473.65 C 718.47 474.70 724.27 475.21 729.93 476.54 C 739.00 478.54 748.53 479.63 757.70 477.56 C 766.41 475.42 774.56 471.17 781.40 465.36 C 783.47 474.91 783.75 485.40 779.40 494.39 C 774.67 504.79 765.56 513.35 754.64 516.89 C 754.91 530.24 750.53 544.28 740.18 553.20 C 731.94 559.94 721.72 565.26 710.77 564.60 C 715.12 549.74 712.17 532.78 702.20 520.79 C 694.35 511.55 683.32 504.52 671.09 503.21 C 668.08 502.94 664.66 502.06 661.96 503.88 C 658.25 506.15 658.09 512.82 662.23 514.71 C 666.38 516.00 670.86 514.98 675.05 516.18 C 689.66 520.34 701.18 534.64 700.79 550.04 C 701.23 560.04 696.85 569.88 689.78 576.84 C 683.31 582.71 674.78 586.51 665.98 586.60 C 655.55 587.06 645.30 582.30 638.19 574.82 C 632.76 568.56 629.40 560.37 629.40 552.04 C 629.49 499.66 629.18 447.27 629.55 394.88 C 637.07 403.33 645.37 411.60 655.89 416.19 C 664.78 419.92 674.24 423.09 684.00 422.69 C 686.03 422.61 687.79 421.47 689.61 420.67 C 689.84 417.88 691.04 414.41 688.71 412.18 C 685.99 410.52 682.65 410.80 679.61 410.43 C 672.83 410.04 666.29 407.80 660.26 404.76 C 654.71 401.91 649.10 398.78 644.98 393.98 C 640.09 388.30 635.69 382.04 633.12 374.94 C 630.52 367.94 629.39 360.44 629.44 352.98 C 629.49 334.65 629.46 316.31 629.44 297.98 C 629.39 290.07 632.11 282.22 636.83 275.90 Z" />
<path fill="#78daab" opacity="1.00" d=" M 337.66 295.74 C 342.80 292.31 347.43 288.01 353.19 285.63 C 352.88 291.11 352.89 296.60 353.18 302.09 C 353.62 310.07 352.55 318.03 352.71 326.02 C 352.53 334.33 353.54 342.63 353.04 350.94 C 352.42 366.29 352.88 381.66 352.76 397.03 C 353.18 410.31 351.93 423.66 353.52 436.90 C 355.04 447.41 360.50 457.58 369.24 463.80 C 374.60 467.62 380.79 470.19 387.18 471.73 C 397.77 474.07 408.81 470.55 417.63 464.67 C 424.85 459.70 429.95 452.12 433.12 444.04 C 435.71 437.57 435.10 430.46 435.60 423.64 C 439.30 426.98 441.19 431.74 444.32 435.55 C 448.44 440.64 451.62 446.38 455.23 451.83 C 458.28 456.52 462.36 460.38 466.26 464.35 C 464.63 466.70 462.18 468.20 459.86 469.78 C 441.74 482.65 424.03 496.10 405.80 508.83 C 398.99 513.68 388.90 512.94 382.93 507.09 C 377.02 501.18 372.65 493.98 367.46 487.47 C 361.87 480.64 357.46 472.94 351.93 466.06 C 341.82 453.38 332.73 439.95 323.13 426.89 C 316.11 417.84 309.45 408.53 302.76 399.23 C 296.02 389.70 288.52 380.73 281.84 371.16 C 278.38 366.14 273.81 361.29 273.49 354.86 C 272.63 347.56 276.51 340.48 282.37 336.31 C 300.60 322.51 319.10 309.08 337.66 295.74 Z" />
<path fill="#78daab" opacity="1.00" d=" M 249.91 446.11 C 251.74 446.81 253.58 447.56 255.16 448.76 C 268.73 458.50 281.89 468.79 295.54 478.42 C 311.21 489.74 326.55 501.52 342.34 512.67 C 349.88 518.06 357.27 523.67 364.60 529.35 C 373.49 535.83 382.57 542.06 391.24 548.85 C 397.74 553.93 406.61 554.56 414.47 553.24 C 420.81 551.48 426.76 548.04 431.18 543.13 C 434.57 539.43 437.15 535.10 440.04 531.02 C 448.35 519.70 457.02 508.64 464.91 497.02 C 465.85 495.49 467.36 494.52 468.87 493.63 C 466.16 503.42 462.49 512.93 459.67 522.69 C 455.29 534.75 452.10 547.22 447.10 559.05 C 443.09 568.45 430.94 571.69 421.89 568.10 C 408.56 564.02 395.71 558.53 382.37 554.50 C 366.89 549.63 351.88 543.43 336.39 538.62 C 318.46 532.70 300.87 525.80 282.85 520.16 C 271.45 516.32 260.22 511.97 248.76 508.27 C 241.11 505.88 236.04 497.91 236.21 490.03 C 236.02 483.40 239.56 477.56 241.52 471.43 C 244.18 462.94 247.46 454.66 249.91 446.11 Z" />
</g>
<g id="#13294fff">
<path fill="#13294f" opacity="1.00" d=" M 615.30 347.99 C 615.52 327.43 614.46 306.83 615.81 286.30 C 616.10 288.18 616.29 290.10 616.30 292.02 C 616.26 378.00 616.31 463.99 616.32 549.97 C 616.30 554.92 616.66 559.93 615.67 564.82 C 614.89 556.57 615.49 548.29 615.34 540.02 C 615.34 496.68 615.33 453.33 615.35 409.99 C 615.03 389.33 615.17 368.66 615.30 347.99 Z" />
<path fill="#13294f" opacity="1.00" d=" M 383.41 456.62 C 390.43 456.41 397.46 456.45 404.49 456.68 C 397.83 459.51 390.03 459.59 383.41 456.62 Z" />
<path fill="#13294f" opacity="1.00" d=" M 478.56 500.60 C 478.71 522.75 478.50 544.90 478.60 567.05 C 478.67 569.33 478.29 571.58 477.70 573.78 C 476.69 564.21 477.72 554.58 477.19 544.99 C 477.10 535.63 477.93 526.28 477.46 516.93 C 477.50 514.69 476.15 512.84 475.08 511.02 C 476.16 507.52 477.35 504.05 478.56 500.60 Z" />
<path fill="#13294f" opacity="1.00" d=" M 791.55 658.15 C 796.61 658.06 801.68 657.87 806.75 657.97 C 806.68 679.31 806.74 700.66 806.76 722.01 C 818.74 709.85 831.57 698.56 843.55 686.40 C 849.71 686.31 855.88 686.33 862.05 686.51 C 852.17 697.05 841.32 706.60 831.33 717.02 C 842.51 731.59 853.63 746.21 865.29 760.40 C 859.10 760.36 852.91 760.31 846.72 760.47 C 837.63 749.74 829.88 737.89 820.33 727.57 C 815.74 731.93 810.97 736.12 806.82 740.92 C 806.71 747.42 806.73 753.91 806.82 760.42 C 801.72 760.29 796.63 760.29 791.54 760.45 C 791.66 726.35 791.63 692.25 791.55 658.15 Z" />
<path fill="#13294f" opacity="1.00" d=" M 163.84 662.72 C 169.20 662.64 174.55 662.63 179.90 662.77 C 184.48 670.58 189.71 678.00 194.23 685.84 C 198.26 693.03 202.81 699.91 206.99 707.02 C 211.07 713.81 214.87 720.78 219.37 727.31 C 225.21 719.58 229.34 710.74 234.48 702.55 C 242.72 689.50 250.19 675.99 258.16 662.78 C 263.56 662.59 268.97 662.66 274.37 662.68 C 274.20 695.24 274.29 727.79 274.24 760.34 C 268.44 760.36 262.64 760.45 256.83 760.38 C 256.90 738.59 257.07 716.80 256.67 695.02 C 245.82 713.45 234.79 731.76 224.01 750.23 C 220.94 750.22 217.88 750.22 214.82 750.24 C 203.59 732.07 192.34 713.91 181.47 695.53 C 180.99 717.17 181.28 738.81 181.28 760.46 C 175.46 760.35 169.65 760.34 163.84 760.40 C 164.22 740.27 164.06 720.14 163.94 700.01 C 164.25 687.58 163.99 675.15 163.84 662.72 Z" />
<path fill="#13294f" opacity="1.00" d=" M 522.83 662.71 C 537.56 662.68 552.30 662.60 567.03 662.65 C 582.04 662.93 597.47 669.13 606.87 681.15 C 615.60 692.96 618.58 708.64 615.58 722.95 C 613.26 734.22 606.75 744.74 597.17 751.24 C 587.78 757.64 576.27 760.40 565.00 760.44 C 550.93 760.38 536.86 760.43 522.79 760.36 C 523.30 737.60 523.10 714.83 523.16 692.06 C 523.00 682.27 523.53 672.47 522.83 662.71 M 538.59 675.85 C 538.89 699.62 538.74 723.39 538.63 747.17 C 546.75 747.21 554.86 746.95 562.98 746.95 C 574.47 747.41 586.60 743.15 593.82 733.90 C 599.36 727.29 601.43 718.41 600.94 709.93 C 600.67 699.23 595.58 688.42 586.57 682.37 C 580.04 677.70 571.88 675.97 563.97 675.89 C 555.51 675.80 547.05 675.83 538.59 675.85 Z" />
<path fill="#13294f" opacity="1.00" d=" M 298.09 697.97 C 307.38 687.60 322.44 683.43 335.95 685.91 C 346.20 687.70 355.84 693.89 360.94 703.08 C 365.24 710.70 366.42 719.71 365.66 728.33 C 345.93 728.26 326.20 728.31 306.46 728.35 C 308.31 736.97 315.29 744.19 323.92 746.09 C 333.68 748.68 344.28 745.18 351.43 738.26 C 354.63 741.91 357.82 745.58 361.00 749.26 C 352.97 758.62 340.02 762.04 328.09 761.63 C 317.35 760.84 306.18 757.21 298.75 749.07 C 285.87 735.38 285.87 712.08 298.09 697.97 M 316.81 701.86 C 311.33 705.20 307.79 711.03 306.41 717.22 C 320.55 717.26 334.69 717.24 348.83 717.23 C 347.76 713.05 346.53 708.67 343.46 705.48 C 336.87 698.26 325.11 696.80 316.81 701.86 Z" />
<path fill="#13294f" opacity="1.00" d=" M 396.42 694.48 C 409.41 681.50 433.38 682.07 445.12 696.46 C 451.75 689.95 460.63 685.44 470.03 685.26 C 478.78 684.85 488.24 686.99 494.57 693.41 C 500.03 699.14 502.29 707.24 502.46 715.00 C 502.56 730.13 502.46 745.26 502.54 760.39 C 496.51 760.29 490.48 760.38 484.45 760.42 C 484.61 746.62 484.42 732.81 484.54 719.00 C 484.63 713.14 482.99 706.60 478.00 703.01 C 470.52 698.08 459.27 699.60 453.78 706.84 C 450.19 711.38 449.51 717.40 449.49 723.00 C 449.50 735.45 449.46 747.91 449.52 760.36 C 443.56 760.34 437.59 760.36 431.63 760.43 C 431.69 745.93 431.80 731.43 431.53 716.93 C 431.44 711.20 428.82 705.17 423.71 702.23 C 416.93 698.62 407.77 699.87 402.48 705.53 C 398.73 709.31 397.16 714.73 397.16 719.95 C 397.15 733.43 397.17 746.90 397.17 760.38 C 391.19 760.33 385.21 760.37 379.23 760.42 C 379.33 735.67 379.30 710.93 379.30 686.18 C 385.03 686.18 390.76 686.21 396.50 686.23 C 396.49 688.97 396.48 691.72 396.42 694.48 Z" />
<path fill="#13294f" opacity="1.00" d=" M 635.40 697.51 C 645.21 687.02 661.21 682.82 674.94 687.05 C 683.81 689.65 691.84 695.65 696.05 703.97 C 699.90 711.40 700.77 719.95 700.36 728.20 C 680.51 728.31 660.67 728.20 640.83 728.33 C 642.36 737.15 649.16 744.76 657.74 747.31 C 663.95 749.14 670.71 748.80 676.84 746.81 C 681.07 745.41 684.52 742.50 687.97 739.80 C 690.79 742.87 693.52 746.02 696.26 749.18 C 689.44 756.98 679.06 760.68 668.96 761.42 C 656.61 762.27 643.51 758.05 635.19 748.62 C 622.83 734.59 623.37 711.57 635.40 697.51 M 653.05 700.05 C 646.28 703.33 641.70 710.33 641.00 717.78 C 656.04 717.83 671.09 717.93 686.13 717.72 C 684.94 711.94 682.77 705.90 677.87 702.24 C 670.90 696.82 660.92 696.42 653.05 700.05 Z" />
<path fill="#13294f" opacity="1.00" d=" M 714.19 704.32 C 724.00 686.18 749.25 680.34 767.00 689.82 C 772.22 692.29 776.49 696.46 779.17 701.57 C 775.44 703.93 771.75 706.37 768.00 708.71 C 764.73 704.74 760.96 700.75 755.86 699.28 C 747.19 696.47 736.80 698.66 730.70 705.64 C 725.17 711.14 723.81 719.42 724.60 726.90 C 725.37 736.51 732.66 745.24 742.01 747.65 C 747.86 749.01 754.29 748.52 759.63 745.63 C 763.08 743.77 765.58 740.67 767.95 737.64 C 771.77 739.94 775.61 742.24 779.61 744.24 C 775.94 750.88 770.08 756.37 762.83 758.83 C 749.55 764.11 733.46 761.71 722.47 752.52 C 708.68 741.19 705.17 719.62 714.19 704.32 Z" />
</g>
</svg>
